# xmcd
#
# Track frame offsets:
#	150
#	17014
#	34125
#	50923
#	66735
#	81436
#	97210
#	118065
#	132644
#	147874
#	165522
#	182497
#	197003
#	211990
#
# Disc length: 3025 seconds
#
# Revision: 1
# Processed by: cddbd v1.5.2PL0 Copyright (c) Steve Scherf et al.
# Submitted via: audiograbber 1.83.01
#
DISCID=d90bcf0e
DTITLE=Die Zipfelbuben - Volkspop
DYEAR=1900
DGENRE=
TTITLE0=Wenn Du mich liebst ( sag einfach ja ) [3-0-271390]
TTITLE1=Der Teufel und der junge Mann ( Singel Version ) [3-0-271390]
TTITLE2=Du bist nicht allein [3-0-271390]
TTITLE3=Freiheitsritt [3-0-271390]
TTITLE4=Kedeng,Kedeng ( Short Version ) [3-0-271390]
TTITLE5=Klonen [3-0-271390]
TTITLE6=König der Zeit [3-0-271390]
TTITLE7=Küss mich ( Maybe ) [3-0-271390]
TTITLE8=Liebe meines Lebens [3-0-271390]
TTITLE9=Mein Kind [3-0-271390]
TTITLE10=Nacktbaden [3-0-271390]
TTITLE11=Soviel zur Liebe [3-0-271390]
TTITLE12=Taxi nach Paris [3-0-271390]
TTITLE13=Unser Lied [3-0-271390]
EXTD=
EXTT0=
EXTT1=
EXTT2=
EXTT3=
EXTT4=
EXTT5=
EXTT6=
EXTT7=
EXTT8=
EXTT9=
EXTT10=
EXTT11=
EXTT12=
EXTT13=
PLAYORDER=
